<?xml version="1.0" standalone="no"?>
<!DOCTYPE svg PUBLIC "-//W3C//DTD SVG 20010904//EN"
 "http://www.w3.org/TR/2001/REC-SVG-20010904/DTD/svg10.dtd">
<svg version="1.0" xmlns="http://www.w3.org/2000/svg"
 width="1581.000000pt" height="1581.000000pt" viewBox="0 0 1581.000000 1581.000000"
 preserveAspectRatio="xMidYMid meet">
<metadata>
Created by potrace 1.11, written by Peter Selinger 2001-2013
</metadata>
<g transform="translate(0.000000,1581.000000) scale(0.100000,-0.100000)"
fill="#000000" stroke="none">
<path d="M0 7905 l0 -7905 7905 0 7905 0 0 7905 0 7905 -7905 0 -7905 0 0
-7905z m8263 5000 c675 -65 1324 -309 1862 -699 240 -174 544 -460 722 -681
437 -542 713 -1171 813 -1855 77 -527 34 -1113 -121 -1630 -167 -553 -430
-1021 -824 -1460 -62 -69 -126 -138 -143 -153 l-30 -29 -765 793 -766 793 52
58 c223 251 351 511 408 826 18 101 20 142 16 302 -6 191 -22 298 -68 440
-152 466 -514 848 -959 1008 -175 63 -303 87 -515 97 -412 20 -854 -155 -1155
-457 -190 -191 -306 -377 -389 -626 -66 -197 -84 -322 -78 -542 7 -245 35
-376 125 -590 63 -149 161 -303 269 -424 l44 -50 -53 -52 c-29 -30 -386 -375
-793 -767 l-740 -714 -61 66 c-326 353 -596 792 -762 1241 -74 201 -106 310
-158 544 -104 468 -107 1029 -10 1526 86 442 277 916 519 1295 157 245 274
392 482 604 315 322 625 552 1002 742 426 215 850 339 1348 394 164 18 546 18
728 0z m-1239 -6225 c229 -236 416 -433 416 -437 0 -12 -850 -828 -862 -828
-5 0 -196 193 -423 429 l-414 428 157 152 c86 84 281 272 432 419 151 146 276
266 276 267 1 0 189 -193 418 -430z m2522 -49 c225 -233 409 -429 409 -435 0
-6 -193 -197 -428 -425 l-429 -414 -33 34 c-19 19 -207 214 -419 434 l-386
400 58 56 c254 251 807 779 813 777 4 -2 191 -194 415 -427z m-1281 -1236
c226 -234 410 -430 410 -435 0 -6 -193 -198 -429 -426 l-430 -415 -31 33 c-17
18 -205 213 -416 432 -211 219 -384 402 -384 405 0 10 849 830 860 830 6 1
195 -190 420 -424z m-1226 -1245 c199 -206 360 -378 359 -382 -2 -4 -196 -193
-432 -421 l-429 -413 -420 433 -419 434 173 167 c96 92 291 281 434 419 l260
252 57 -57 c31 -31 219 -226 417 -432z m2452 22 c222 -229 410 -424 417 -433
11 -15 -42 -69 -417 -433 -237 -229 -432 -416 -434 -416 -4 0 -724 743 -795
821 l-42 46 432 417 c237 229 432 416 434 416 1 0 183 -188 405 -418z"/>
</g>
</svg>
