<?xml version="1.0" standalone="no"?>
<!DOCTYPE svg PUBLIC "-//W3C//DTD SVG 20010904//EN"
 "http://www.w3.org/TR/2001/REC-SVG-20010904/DTD/svg10.dtd">
<svg version="1.0" xmlns="http://www.w3.org/2000/svg"
 width="1581.000000pt" height="1581.000000pt" viewBox="0 0 1581.000000 1581.000000"
 preserveAspectRatio="xMidYMid meet">
<metadata>
Created by potrace 1.11, written by Peter Selinger 2001-2013
</metadata>
<g transform="translate(0.000000,1581.000000) scale(0.100000,-0.100000)"
fill="#000000" stroke="none">
<path d="M7645 12914 c-986 -80 -1853 -491 -2507 -1190 -855 -915 -1202 -2164
-943 -3393 63 -298 177 -626 312 -896 148 -295 382 -635 598 -867 l70 -76 792
765 792 765 -66 77 c-361 423 -472 1007 -293 1541 44 132 141 316 228 434 376
504 989 737 1611 610 527 -107 984 -513 1165 -1033 67 -192 80 -279 80 -521 0
-185 -3 -229 -22 -316 -61 -282 -183 -525 -371 -740 l-79 -91 670 -694 c368
-382 713 -738 766 -791 l97 -98 127 138 c393 426 652 861 830 1395 371 1117
208 2328 -445 3307 -147 220 -305 407 -513 610 -594 577 -1338 934 -2174 1045
-120 16 -603 29 -725 19z"/>
<path d="M6330 6843 c-151 -147 -346 -335 -432 -419 l-157 -152 414 -428 c227
-236 418 -429 423 -429 12 0 862 816 862 828 0 6 -829 868 -834 867 0 -1 -125
-121 -276 -267z"/>
<path d="M8749 6699 c-206 -198 -400 -386 -431 -418 l-58 -56 386 -400 c212
-220 400 -415 419 -434 l33 -34 429 414 c235 228 428 419 428 425 0 10 -809
856 -824 862 -4 1 -176 -160 -382 -359z"/>
<path d="M7410 5407 c-234 -227 -425 -415 -425 -418 0 -3 173 -186 384 -405
211 -219 399 -414 416 -432 l31 -33 430 415 c236 228 429 420 429 426 0 14
-817 860 -830 859 -5 0 -201 -185 -435 -412z"/>
<path d="M6135 4223 c-236 -229 -430 -420 -430 -424 0 -10 819 -857 830 -858
9 -1 857 813 863 829 2 6 -541 575 -761 797 l-72 72 -430 -416z"/>
<path d="M8652 4174 l-432 -416 48 -52 c26 -29 213 -224 416 -434 l370 -382
25 22 c14 13 209 200 433 417 356 343 407 395 396 410 -14 17 -819 851 -822
851 -1 0 -197 -187 -434 -416z"/>
</g>
</svg>
